<svg width="992" height="473" viewBox="0 0 992 473" fill="none" xmlns="http://www.w3.org/2000/svg">
<rect width="992" height="473" rx="71.649" fill="white"/>
<rect x="86.1152" y="87.1152" width="820.77" height="297.77" rx="37.3821" fill="white"/>
<rect x="86.1152" y="87.1152" width="820.77" height="297.77" rx="37.3821" stroke="#CBD0DC" stroke-width="6.23035" stroke-dasharray="18.69 18.69"/>
<path d="M482.502 192.245H476.77C467.993 191.618 464.053 184.871 464.053 178.871C464.053 172.87 467.993 166.093 476.621 165.496C477.845 165.377 478.92 166.332 479.009 167.586C479.099 168.81 478.174 169.885 476.92 169.974C471.128 170.392 468.531 174.751 468.531 178.9C468.531 183.05 471.128 187.409 476.92 187.827H482.502C483.726 187.827 484.741 188.842 484.741 190.066C484.741 191.29 483.726 192.245 482.502 192.245Z" fill="#292D32"/>
<path d="M509.997 192.245C509.937 192.245 509.907 192.245 509.847 192.245C508.623 192.245 507.489 191.23 507.489 190.006C507.489 188.722 508.444 187.767 509.698 187.767C513.37 187.767 516.654 186.483 519.221 184.184C523.879 180.124 524.177 174.273 522.923 170.153C521.669 166.063 518.177 161.376 512.086 160.63C511.101 160.51 510.325 159.764 510.146 158.779C508.952 151.614 505.101 146.658 499.249 144.867C493.219 142.986 486.173 144.837 481.785 149.435C477.516 153.883 476.531 160.122 479.008 166.989C479.426 168.153 478.829 169.437 477.665 169.855C476.501 170.273 475.217 169.675 474.799 168.511C471.784 160.092 473.157 152.032 478.561 146.36C484.084 140.568 492.95 138.269 500.563 140.598C507.549 142.747 512.474 148.509 514.266 156.51C520.356 157.883 525.252 162.511 527.192 168.899C529.312 175.855 527.401 183.02 522.177 187.558C518.863 190.543 514.534 192.245 509.997 192.245Z" fill="#292D32"/>
<path d="M496.055 201.022C490.054 201.022 484.442 197.828 481.367 192.663C481.039 192.155 480.71 191.558 480.442 190.902C479.427 188.782 478.889 186.364 478.889 183.856C478.889 174.392 486.591 166.69 496.055 166.69C505.519 166.69 513.221 174.392 513.221 183.856C513.221 186.394 512.684 188.782 511.609 190.991C511.37 191.558 511.042 192.155 510.683 192.723C507.668 197.828 502.056 201.022 496.055 201.022ZM496.055 171.168C489.069 171.168 483.367 176.87 483.367 183.856C483.367 185.707 483.755 187.439 484.502 189.021C484.741 189.528 484.949 189.946 485.188 190.334C487.457 194.186 491.607 196.544 496.025 196.544C500.444 196.544 504.593 194.186 506.832 190.394C507.101 189.946 507.34 189.528 507.519 189.11C508.325 187.468 508.713 185.737 508.713 183.886C508.743 176.87 503.041 171.168 496.055 171.168Z" fill="#292D32"/>
<path d="M494.353 189.051C493.786 189.051 493.219 188.842 492.771 188.394L489.815 185.438C488.95 184.572 488.95 183.14 489.815 182.274C490.681 181.408 492.114 181.408 492.98 182.274L494.413 183.707L499.189 179.288C500.115 178.452 501.518 178.512 502.354 179.408C503.19 180.303 503.13 181.736 502.235 182.572L495.876 188.453C495.428 188.842 494.891 189.051 494.353 189.051Z" fill="#292D32"/>
<path d="M376.579 290.106H374.363C374.278 289.632 374.12 289.215 373.888 288.856C373.656 288.496 373.372 288.19 373.035 287.939C372.699 287.689 372.323 287.499 371.906 287.371C371.494 287.243 371.056 287.18 370.592 287.18C369.754 287.18 369.004 287.39 368.341 287.812C367.683 288.233 367.162 288.851 366.778 289.665C366.399 290.48 366.21 291.474 366.21 292.648C366.21 293.832 366.399 294.831 366.778 295.645C367.162 296.46 367.685 297.075 368.348 297.492C369.011 297.909 369.756 298.117 370.585 298.117C371.044 298.117 371.48 298.055 371.892 297.932C372.309 297.805 372.685 297.617 373.021 297.371C373.357 297.125 373.641 296.824 373.873 296.469C374.11 296.109 374.273 295.698 374.363 295.233L376.579 295.241C376.461 295.956 376.231 296.614 375.89 297.215C375.554 297.812 375.121 298.328 374.591 298.763C374.065 299.194 373.464 299.528 372.787 299.765C372.11 300.001 371.371 300.12 370.571 300.12C369.311 300.12 368.189 299.822 367.204 299.225C366.22 298.624 365.443 297.764 364.875 296.647C364.311 295.529 364.03 294.197 364.03 292.648C364.03 291.095 364.314 289.762 364.882 288.65C365.45 287.532 366.227 286.675 367.211 286.079C368.196 285.477 369.316 285.177 370.571 285.177C371.343 285.177 372.062 285.288 372.73 285.51C373.402 285.728 374.006 286.05 374.541 286.476C375.076 286.898 375.519 287.414 375.869 288.025C376.22 288.631 376.456 289.324 376.579 290.106ZM381.159 293.444V299.921H379.035V285.376H381.13V290.787H381.265C381.521 290.2 381.911 289.734 382.437 289.388C382.963 289.043 383.649 288.87 384.497 288.87C385.245 288.87 385.898 289.024 386.457 289.332C387.02 289.639 387.456 290.099 387.764 290.709C388.076 291.315 388.232 292.073 388.232 292.982V299.921H386.109V293.238C386.109 292.438 385.903 291.817 385.491 291.377C385.079 290.932 384.506 290.709 383.772 290.709C383.27 290.709 382.82 290.816 382.423 291.029C382.03 291.242 381.72 291.555 381.492 291.966C381.27 292.374 381.159 292.866 381.159 293.444ZM395.661 300.141C394.639 300.141 393.746 299.907 392.984 299.438C392.222 298.969 391.63 298.314 391.208 297.471C390.787 296.628 390.576 295.643 390.576 294.516C390.576 293.385 390.787 292.395 391.208 291.547C391.63 290.7 392.222 290.042 392.984 289.573C393.746 289.104 394.639 288.87 395.661 288.87C396.684 288.87 397.577 289.104 398.339 289.573C399.101 290.042 399.693 290.7 400.115 291.547C400.536 292.395 400.747 293.385 400.747 294.516C400.747 295.643 400.536 296.628 400.115 297.471C399.693 298.314 399.101 298.969 398.339 299.438C397.577 299.907 396.684 300.141 395.661 300.141ZM395.669 298.358C396.331 298.358 396.881 298.183 397.316 297.833C397.752 297.483 398.074 297.016 398.282 296.434C398.495 295.851 398.602 295.21 398.602 294.509C398.602 293.813 398.495 293.174 398.282 292.591C398.074 292.004 397.752 291.533 397.316 291.178C396.881 290.823 396.331 290.645 395.669 290.645C395.001 290.645 394.447 290.823 394.007 291.178C393.571 291.533 393.247 292.004 393.034 292.591C392.825 293.174 392.721 293.813 392.721 294.509C392.721 295.21 392.825 295.851 393.034 296.434C393.247 297.016 393.571 297.483 394.007 297.833C394.447 298.183 395.001 298.358 395.669 298.358ZM407.712 300.141C406.689 300.141 405.797 299.907 405.035 299.438C404.272 298.969 403.68 298.314 403.259 297.471C402.838 296.628 402.627 295.643 402.627 294.516C402.627 293.385 402.838 292.395 403.259 291.547C403.68 290.7 404.272 290.042 405.035 289.573C405.797 289.104 406.689 288.87 407.712 288.87C408.735 288.87 409.627 289.104 410.39 289.573C411.152 290.042 411.744 290.7 412.165 291.547C412.587 292.395 412.797 293.385 412.797 294.516C412.797 295.643 412.587 296.628 412.165 297.471C411.744 298.314 411.152 298.969 410.39 299.438C409.627 299.907 408.735 300.141 407.712 300.141ZM407.719 298.358C408.382 298.358 408.931 298.183 409.367 297.833C409.803 297.483 410.125 297.016 410.333 296.434C410.546 295.851 410.653 295.21 410.653 294.509C410.653 293.813 410.546 293.174 410.333 292.591C410.125 292.004 409.803 291.533 409.367 291.178C408.931 290.823 408.382 290.645 407.719 290.645C407.052 290.645 406.498 290.823 406.057 291.178C405.622 291.533 405.297 292.004 405.084 292.591C404.876 293.174 404.772 293.813 404.772 294.509C404.772 295.21 404.876 295.851 405.084 296.434C405.297 297.016 405.622 297.483 406.057 297.833C406.498 298.183 407.052 298.358 407.719 298.358ZM423.343 291.675L421.418 292.016C421.337 291.77 421.209 291.536 421.034 291.313C420.864 291.09 420.632 290.908 420.338 290.766C420.045 290.624 419.678 290.553 419.237 290.553C418.636 290.553 418.134 290.688 417.732 290.958C417.329 291.223 417.128 291.566 417.128 291.988C417.128 292.352 417.263 292.646 417.533 292.868C417.803 293.091 418.238 293.273 418.84 293.415L420.573 293.813C421.576 294.045 422.325 294.403 422.817 294.885C423.309 295.368 423.556 295.996 423.556 296.768C423.556 297.421 423.366 298.003 422.987 298.515C422.613 299.021 422.09 299.419 421.418 299.708C420.75 299.997 419.976 300.141 419.095 300.141C417.874 300.141 416.877 299.881 416.105 299.36C415.334 298.834 414.86 298.089 414.685 297.123L416.737 296.81C416.865 297.345 417.128 297.75 417.526 298.025C417.923 298.295 418.442 298.43 419.081 298.43C419.777 298.43 420.334 298.285 420.75 297.996C421.167 297.703 421.375 297.345 421.375 296.924C421.375 296.583 421.247 296.296 420.992 296.064C420.741 295.832 420.355 295.657 419.834 295.539L417.987 295.134C416.969 294.902 416.217 294.533 415.729 294.026C415.246 293.519 415.004 292.878 415.004 292.101C415.004 291.457 415.184 290.894 415.544 290.411C415.904 289.928 416.401 289.552 417.036 289.282C417.67 289.007 418.397 288.87 419.216 288.87C420.395 288.87 421.323 289.126 422 289.637C422.677 290.144 423.125 290.823 423.343 291.675ZM430.592 300.141C429.517 300.141 428.592 299.912 427.815 299.452C427.043 298.988 426.447 298.337 426.025 297.499C425.609 296.656 425.4 295.669 425.4 294.537C425.4 293.42 425.609 292.435 426.025 291.583C426.447 290.731 427.034 290.065 427.787 289.587C428.544 289.109 429.43 288.87 430.443 288.87C431.059 288.87 431.655 288.972 432.233 289.175C432.81 289.379 433.329 289.698 433.788 290.134C434.247 290.57 434.61 291.135 434.875 291.832C435.14 292.523 435.273 293.363 435.273 294.353V295.106H426.601V293.515H433.192C433.192 292.956 433.078 292.461 432.851 292.03C432.623 291.595 432.304 291.251 431.892 291.001C431.485 290.75 431.006 290.624 430.457 290.624C429.861 290.624 429.34 290.771 428.895 291.064C428.454 291.353 428.113 291.732 427.872 292.201C427.635 292.665 427.517 293.169 427.517 293.714V294.957C427.517 295.686 427.645 296.306 427.9 296.817C428.161 297.329 428.523 297.719 428.987 297.989C429.451 298.254 429.993 298.387 430.613 298.387C431.016 298.387 431.383 298.33 431.714 298.216C432.046 298.098 432.332 297.923 432.574 297.691C432.815 297.459 433 297.172 433.128 296.832L435.138 297.194C434.977 297.786 434.688 298.304 434.271 298.749C433.859 299.189 433.341 299.533 432.716 299.779C432.095 300.02 431.388 300.141 430.592 300.141ZM446.096 300.162C445.405 300.162 444.78 300.035 444.221 299.779C443.663 299.519 443.22 299.142 442.893 298.65C442.571 298.157 442.41 297.554 442.41 296.839C442.41 296.223 442.529 295.716 442.765 295.319C443.002 294.921 443.322 294.606 443.724 294.374C444.127 294.142 444.577 293.967 445.074 293.849C445.571 293.73 446.077 293.64 446.594 293.579C447.247 293.503 447.777 293.441 448.184 293.394C448.592 293.342 448.888 293.259 449.072 293.145C449.257 293.032 449.349 292.847 449.349 292.591V292.542C449.349 291.921 449.174 291.441 448.824 291.1C448.478 290.759 447.962 290.589 447.275 290.589C446.56 290.589 445.997 290.747 445.585 291.064C445.178 291.377 444.896 291.725 444.74 292.108L442.744 291.654C442.981 290.991 443.327 290.456 443.781 290.049C444.24 289.637 444.768 289.339 445.365 289.154C445.961 288.965 446.589 288.87 447.247 288.87C447.683 288.87 448.144 288.922 448.632 289.026C449.124 289.126 449.584 289.31 450.01 289.58C450.441 289.85 450.793 290.236 451.068 290.738C451.343 291.235 451.48 291.881 451.48 292.677V299.921H449.406V298.43H449.321C449.184 298.704 448.978 298.974 448.703 299.239C448.428 299.504 448.076 299.724 447.645 299.9C447.214 300.075 446.698 300.162 446.096 300.162ZM446.558 298.458C447.145 298.458 447.647 298.342 448.064 298.11C448.485 297.878 448.805 297.575 449.023 297.201C449.245 296.822 449.356 296.417 449.356 295.986V294.58C449.281 294.656 449.134 294.727 448.916 294.793C448.703 294.855 448.459 294.909 448.184 294.957C447.91 294.999 447.642 295.039 447.382 295.077C447.122 295.11 446.904 295.139 446.729 295.162C446.317 295.215 445.94 295.302 445.599 295.425C445.263 295.548 444.993 295.726 444.79 295.958C444.591 296.185 444.491 296.488 444.491 296.867C444.491 297.393 444.685 297.79 445.074 298.06C445.462 298.325 445.957 298.458 446.558 298.458ZM464.793 289.012V290.716H458.628V289.012H464.793ZM460.319 299.921V287.748C460.319 287.066 460.468 286.5 460.766 286.05C461.064 285.596 461.46 285.257 461.952 285.035C462.445 284.807 462.98 284.694 463.557 284.694C463.983 284.694 464.348 284.729 464.651 284.8C464.954 284.867 465.179 284.928 465.326 284.985L464.829 286.704C464.729 286.675 464.601 286.642 464.445 286.604C464.289 286.562 464.099 286.54 463.877 286.54C463.361 286.54 462.992 286.668 462.769 286.924C462.551 287.18 462.442 287.549 462.442 288.032V299.921H460.319ZM466.984 299.921V289.012H469.108V299.921H466.984ZM468.057 287.329C467.687 287.329 467.37 287.206 467.105 286.959C466.845 286.708 466.714 286.41 466.714 286.064C466.714 285.714 466.845 285.416 467.105 285.17C467.37 284.919 467.687 284.793 468.057 284.793C468.426 284.793 468.741 284.919 469.001 285.17C469.266 285.416 469.399 285.714 469.399 286.064C469.399 286.41 469.266 286.708 469.001 286.959C468.741 287.206 468.426 287.329 468.057 287.329ZM474.088 285.376V299.921H471.965V285.376H474.088ZM481.647 300.141C480.572 300.141 479.646 299.912 478.87 299.452C478.098 298.988 477.501 298.337 477.08 297.499C476.663 296.656 476.455 295.669 476.455 294.537C476.455 293.42 476.663 292.435 477.08 291.583C477.501 290.731 478.089 290.065 478.841 289.587C479.599 289.109 480.484 288.87 481.498 288.87C482.113 288.87 482.71 288.972 483.287 289.175C483.865 289.379 484.384 289.698 484.843 290.134C485.302 290.57 485.664 291.135 485.93 291.832C486.195 292.523 486.327 293.363 486.327 294.353V295.106H477.655V293.515H484.246C484.246 292.956 484.133 292.461 483.905 292.03C483.678 291.595 483.358 291.251 482.947 291.001C482.539 290.75 482.061 290.624 481.512 290.624C480.915 290.624 480.394 290.771 479.949 291.064C479.509 291.353 479.168 291.732 478.927 292.201C478.69 292.665 478.572 293.169 478.572 293.714V294.957C478.572 295.686 478.699 296.306 478.955 296.817C479.215 297.329 479.578 297.719 480.042 297.989C480.506 298.254 481.048 298.387 481.668 298.387C482.071 298.387 482.438 298.33 482.769 298.216C483.1 298.098 483.387 297.923 483.628 297.691C483.87 297.459 484.055 297.172 484.182 296.832L486.192 297.194C486.031 297.786 485.742 298.304 485.326 298.749C484.914 299.189 484.395 299.533 483.77 299.779C483.15 300.02 482.442 300.141 481.647 300.141ZM498.572 300.141C497.549 300.141 496.656 299.907 495.894 299.438C495.132 298.969 494.54 298.314 494.118 297.471C493.697 296.628 493.486 295.643 493.486 294.516C493.486 293.385 493.697 292.395 494.118 291.547C494.54 290.7 495.132 290.042 495.894 289.573C496.656 289.104 497.549 288.87 498.572 288.87C499.594 288.87 500.487 289.104 501.249 289.573C502.011 290.042 502.603 290.7 503.025 291.547C503.446 292.395 503.657 293.385 503.657 294.516C503.657 295.643 503.446 296.628 503.025 297.471C502.603 298.314 502.011 298.969 501.249 299.438C500.487 299.907 499.594 300.141 498.572 300.141ZM498.579 298.358C499.242 298.358 499.791 298.183 500.226 297.833C500.662 297.483 500.984 297.016 501.192 296.434C501.405 295.851 501.512 295.21 501.512 294.509C501.512 293.813 501.405 293.174 501.192 292.591C500.984 292.004 500.662 291.533 500.226 291.178C499.791 290.823 499.242 290.645 498.579 290.645C497.911 290.645 497.357 290.823 496.917 291.178C496.481 291.533 496.157 292.004 495.944 292.591C495.735 293.174 495.631 293.813 495.631 294.509C495.631 295.21 495.735 295.851 495.944 296.434C496.157 297.016 496.481 297.483 496.917 297.833C497.357 298.183 497.911 298.358 498.579 298.358ZM506.027 299.921V289.012H508.08V290.745H508.193C508.392 290.158 508.743 289.696 509.244 289.36C509.751 289.019 510.324 288.849 510.963 288.849C511.096 288.849 511.252 288.853 511.432 288.863C511.617 288.872 511.761 288.884 511.865 288.898V290.93C511.78 290.906 511.628 290.88 511.411 290.851C511.193 290.818 510.975 290.802 510.757 290.802C510.255 290.802 509.808 290.908 509.415 291.121C509.027 291.33 508.719 291.621 508.492 291.995C508.264 292.364 508.151 292.786 508.151 293.259V299.921H506.027ZM523.08 300.134C522.199 300.134 521.413 299.909 520.722 299.459C520.035 299.005 519.495 298.358 519.102 297.52C518.714 296.678 518.52 295.667 518.52 294.488C518.52 293.309 518.717 292.3 519.11 291.462C519.507 290.624 520.052 289.983 520.743 289.537C521.434 289.092 522.218 288.87 523.094 288.87C523.771 288.87 524.316 288.983 524.727 289.211C525.144 289.433 525.466 289.694 525.693 289.992C525.925 290.29 526.105 290.553 526.233 290.78H526.361V285.376H528.485V299.921H526.411V298.224H526.233C526.105 298.456 525.921 298.721 525.679 299.019C525.442 299.317 525.116 299.578 524.699 299.8C524.282 300.023 523.743 300.134 523.08 300.134ZM523.548 298.323C524.159 298.323 524.675 298.162 525.097 297.84C525.523 297.513 525.845 297.061 526.063 296.483C526.285 295.906 526.396 295.233 526.396 294.466C526.396 293.709 526.288 293.046 526.07 292.478C525.852 291.91 525.532 291.467 525.111 291.15C524.69 290.832 524.169 290.674 523.548 290.674C522.909 290.674 522.377 290.84 521.95 291.171C521.524 291.502 521.202 291.955 520.985 292.528C520.771 293.1 520.665 293.747 520.665 294.466C520.665 295.196 520.774 295.851 520.992 296.434C521.209 297.016 521.531 297.478 521.958 297.819C522.388 298.155 522.919 298.323 523.548 298.323ZM531.515 299.921V289.012H533.568V290.745H533.682C533.881 290.158 534.231 289.696 534.733 289.36C535.239 289.019 535.812 288.849 536.452 288.849C536.584 288.849 536.74 288.853 536.92 288.863C537.105 288.872 537.249 288.884 537.354 288.898V290.93C537.268 290.906 537.117 290.88 536.899 290.851C536.681 290.818 536.463 290.802 536.246 290.802C535.744 290.802 535.296 290.908 534.903 291.121C534.515 291.33 534.207 291.621 533.98 291.995C533.753 292.364 533.639 292.786 533.639 293.259V299.921H531.515ZM542.268 300.162C541.577 300.162 540.952 300.035 540.393 299.779C539.835 299.519 539.392 299.142 539.065 298.65C538.743 298.157 538.582 297.554 538.582 296.839C538.582 296.223 538.701 295.716 538.937 295.319C539.174 294.921 539.494 294.606 539.896 294.374C540.299 294.142 540.748 293.967 541.246 293.849C541.743 293.73 542.249 293.64 542.765 293.579C543.419 293.503 543.949 293.441 544.356 293.394C544.764 293.342 545.059 293.259 545.244 293.145C545.429 293.032 545.521 292.847 545.521 292.591V292.542C545.521 291.921 545.346 291.441 544.996 291.1C544.65 290.759 544.134 290.589 543.447 290.589C542.732 290.589 542.169 290.747 541.757 291.064C541.35 291.377 541.068 291.725 540.912 292.108L538.916 291.654C539.153 290.991 539.498 290.456 539.953 290.049C540.412 289.637 540.94 289.339 541.537 289.154C542.133 288.965 542.761 288.87 543.419 288.87C543.854 288.87 544.316 288.922 544.804 289.026C545.296 289.126 545.756 289.31 546.182 289.58C546.613 289.85 546.965 290.236 547.24 290.738C547.515 291.235 547.652 291.881 547.652 292.677V299.921H545.578V298.43H545.493C545.355 298.704 545.149 298.974 544.875 299.239C544.6 299.504 544.247 299.724 543.817 299.9C543.386 300.075 542.87 300.162 542.268 300.162ZM542.73 298.458C543.317 298.458 543.819 298.342 544.236 298.11C544.657 297.878 544.977 297.575 545.194 297.201C545.417 296.822 545.528 296.417 545.528 295.986V294.58C545.452 294.656 545.306 294.727 545.088 294.793C544.875 294.855 544.631 294.909 544.356 294.957C544.082 294.999 543.814 295.039 543.554 295.077C543.293 295.11 543.076 295.139 542.9 295.162C542.488 295.215 542.112 295.302 541.771 295.425C541.435 295.548 541.165 295.726 540.961 295.958C540.763 296.185 540.663 296.488 540.663 296.867C540.663 297.393 540.857 297.79 541.246 298.06C541.634 298.325 542.129 298.458 542.73 298.458ZM555.054 304.239C554.188 304.239 553.442 304.126 552.817 303.898C552.197 303.671 551.69 303.37 551.297 302.996C550.904 302.622 550.61 302.213 550.416 301.768L552.242 301.015C552.369 301.223 552.54 301.443 552.753 301.675C552.971 301.912 553.264 302.113 553.634 302.279C554.008 302.445 554.488 302.528 555.075 302.528C555.88 302.528 556.546 302.331 557.071 301.938C557.597 301.55 557.86 300.93 557.86 300.077V297.932H557.725C557.597 298.164 557.412 298.422 557.171 298.707C556.934 298.991 556.607 299.237 556.191 299.445C555.774 299.653 555.232 299.758 554.564 299.758C553.702 299.758 552.926 299.556 552.235 299.154C551.548 298.747 551.003 298.148 550.601 297.357C550.203 296.562 550.004 295.584 550.004 294.424C550.004 293.264 550.201 292.269 550.594 291.441C550.992 290.612 551.536 289.978 552.227 289.537C552.919 289.092 553.702 288.87 554.578 288.87C555.255 288.87 555.802 288.983 556.219 289.211C556.636 289.433 556.96 289.694 557.192 289.992C557.429 290.29 557.611 290.553 557.739 290.78H557.895V289.012H559.976V300.162C559.976 301.1 559.758 301.869 559.323 302.471C558.887 303.072 558.298 303.517 557.554 303.806C556.816 304.095 555.982 304.239 555.054 304.239ZM555.033 297.996C555.644 297.996 556.16 297.854 556.581 297.57C557.007 297.281 557.329 296.869 557.547 296.334C557.77 295.795 557.881 295.148 557.881 294.395C557.881 293.662 557.772 293.015 557.554 292.457C557.336 291.898 557.017 291.462 556.595 291.15C556.174 290.832 555.653 290.674 555.033 290.674C554.394 290.674 553.861 290.84 553.435 291.171C553.009 291.498 552.687 291.943 552.469 292.506C552.256 293.07 552.149 293.699 552.149 294.395C552.149 295.11 552.258 295.738 552.476 296.278C552.694 296.817 553.016 297.239 553.442 297.542C553.873 297.845 554.403 297.996 555.033 297.996ZM572.35 300.127C571.375 300.127 570.534 299.949 569.829 299.594C569.128 299.239 568.588 298.756 568.209 298.145C567.831 297.53 567.641 296.834 567.641 296.057C567.641 295.465 567.764 294.94 568.01 294.481C568.257 294.017 568.6 293.588 569.04 293.195C569.481 292.802 569.99 292.407 570.567 292.009L572.911 290.354C573.309 290.094 573.619 289.819 573.841 289.53C574.064 289.237 574.175 288.875 574.175 288.444C574.175 288.103 574.028 287.776 573.735 287.464C573.441 287.151 573.048 286.995 572.556 286.995C572.215 286.995 571.914 287.078 571.654 287.243C571.398 287.409 571.197 287.622 571.05 287.883C570.908 288.138 570.837 288.408 570.837 288.692C570.837 289.024 570.927 289.358 571.107 289.694C571.292 290.03 571.528 290.378 571.817 290.738C572.106 291.093 572.409 291.462 572.726 291.846L579.481 299.921H577.08L571.491 293.351C571.022 292.797 570.586 292.277 570.184 291.789C569.781 291.296 569.455 290.799 569.204 290.297C568.957 289.791 568.834 289.244 568.834 288.657C568.834 287.989 568.986 287.397 569.289 286.881C569.597 286.36 570.025 285.953 570.574 285.66C571.124 285.366 571.768 285.219 572.506 285.219C573.254 285.219 573.896 285.366 574.431 285.66C574.971 285.948 575.385 286.334 575.674 286.817C575.967 287.296 576.114 287.819 576.114 288.387C576.114 289.078 575.941 289.689 575.596 290.219C575.255 290.745 574.784 291.228 574.182 291.668L571.263 293.82C570.695 294.237 570.3 294.649 570.077 295.056C569.859 295.458 569.751 295.773 569.751 296.001C569.751 296.417 569.857 296.803 570.07 297.158C570.288 297.513 570.591 297.797 570.979 298.01C571.372 298.224 571.831 298.33 572.357 298.33C572.897 298.33 573.422 298.214 573.934 297.982C574.45 297.745 574.916 297.407 575.333 296.966C575.754 296.526 576.088 295.998 576.334 295.383C576.581 294.767 576.704 294.078 576.704 293.316H578.621C578.621 294.253 578.515 295.046 578.302 295.695C578.089 296.339 577.831 296.865 577.528 297.272C577.229 297.674 576.948 297.989 576.682 298.216C576.597 298.292 576.517 298.368 576.441 298.444C576.365 298.519 576.285 298.595 576.199 298.671C575.707 299.168 575.11 299.535 574.41 299.772C573.714 300.009 573.027 300.127 572.35 300.127ZM590.521 300.134C589.64 300.134 588.854 299.909 588.163 299.459C587.477 299.005 586.937 298.358 586.544 297.52C586.156 296.678 585.961 295.667 585.961 294.488C585.961 293.309 586.158 292.3 586.551 291.462C586.949 290.624 587.493 289.983 588.184 289.537C588.876 289.092 589.659 288.87 590.535 288.87C591.212 288.87 591.757 288.983 592.169 289.211C592.586 289.433 592.907 289.694 593.135 289.992C593.367 290.29 593.547 290.553 593.675 290.78H593.802V285.376H595.926V299.921H593.852V298.224H593.675C593.547 298.456 593.362 298.721 593.121 299.019C592.884 299.317 592.557 299.578 592.14 299.8C591.724 300.023 591.184 300.134 590.521 300.134ZM590.99 298.323C591.601 298.323 592.117 298.162 592.538 297.84C592.964 297.513 593.286 297.061 593.504 296.483C593.727 295.906 593.838 295.233 593.838 294.466C593.838 293.709 593.729 293.046 593.511 292.478C593.293 291.91 592.974 291.467 592.552 291.15C592.131 290.832 591.61 290.674 590.99 290.674C590.351 290.674 589.818 290.84 589.392 291.171C588.966 291.502 588.644 291.955 588.426 292.528C588.213 293.1 588.106 293.747 588.106 294.466C588.106 295.196 588.215 295.851 588.433 296.434C588.651 297.016 588.973 297.478 589.399 297.819C589.83 298.155 590.36 298.323 590.99 298.323ZM598.957 299.921V289.012H601.009V290.745H601.123C601.322 290.158 601.672 289.696 602.174 289.36C602.681 289.019 603.254 288.849 603.893 288.849C604.026 288.849 604.182 288.853 604.362 288.863C604.546 288.872 604.691 288.884 604.795 288.898V290.93C604.71 290.906 604.558 290.88 604.34 290.851C604.123 290.818 603.905 290.802 603.687 290.802C603.185 290.802 602.738 290.908 602.345 291.121C601.956 291.33 601.649 291.621 601.421 291.995C601.194 292.364 601.08 292.786 601.08 293.259V299.921H598.957ZM610.837 300.141C609.814 300.141 608.922 299.907 608.16 299.438C607.397 298.969 606.805 298.314 606.384 297.471C605.963 296.628 605.752 295.643 605.752 294.516C605.752 293.385 605.963 292.395 606.384 291.547C606.805 290.7 607.397 290.042 608.16 289.573C608.922 289.104 609.814 288.87 610.837 288.87C611.86 288.87 612.752 289.104 613.515 289.573C614.277 290.042 614.869 290.7 615.29 291.547C615.712 292.395 615.922 293.385 615.922 294.516C615.922 295.643 615.712 296.628 615.29 297.471C614.869 298.314 614.277 298.969 613.515 299.438C612.752 299.907 611.86 300.141 610.837 300.141ZM610.844 298.358C611.507 298.358 612.056 298.183 612.492 297.833C612.928 297.483 613.25 297.016 613.458 296.434C613.671 295.851 613.778 295.21 613.778 294.509C613.778 293.813 613.671 293.174 613.458 292.591C613.25 292.004 612.928 291.533 612.492 291.178C612.056 290.823 611.507 290.645 610.844 290.645C610.177 290.645 609.623 290.823 609.182 291.178C608.747 291.533 608.422 292.004 608.209 292.591C608.001 293.174 607.897 293.813 607.897 294.509C607.897 295.21 608.001 295.851 608.209 296.434C608.422 297.016 608.747 297.483 609.182 297.833C609.623 298.183 610.177 298.358 610.844 298.358ZM618.293 304.012V289.012H620.367V290.78H620.544C620.667 290.553 620.845 290.29 621.077 289.992C621.309 289.694 621.631 289.433 622.043 289.211C622.455 288.983 622.999 288.87 623.676 288.87C624.557 288.87 625.343 289.092 626.034 289.537C626.726 289.983 627.268 290.624 627.661 291.462C628.058 292.3 628.257 293.309 628.257 294.488C628.257 295.667 628.061 296.678 627.668 297.52C627.275 298.358 626.735 299.005 626.048 299.459C625.362 299.909 624.578 300.134 623.698 300.134C623.035 300.134 622.493 300.023 622.071 299.8C621.655 299.578 621.328 299.317 621.091 299.019C620.854 298.721 620.672 298.456 620.544 298.224H620.416V304.012H618.293ZM620.374 294.466C620.374 295.233 620.485 295.906 620.708 296.483C620.93 297.061 621.252 297.513 621.673 297.84C622.095 298.162 622.611 298.323 623.222 298.323C623.856 298.323 624.387 298.155 624.813 297.819C625.239 297.478 625.561 297.016 625.779 296.434C626.001 295.851 626.112 295.196 626.112 294.466C626.112 293.747 626.003 293.1 625.786 292.528C625.573 291.955 625.251 291.502 624.82 291.171C624.394 290.84 623.861 290.674 623.222 290.674C622.606 290.674 622.085 290.832 621.659 291.15C621.238 291.467 620.918 291.91 620.7 292.478C620.483 293.046 620.374 293.709 620.374 294.466Z" fill="#292D32"/>
<rect x="424.558" y="224.558" width="142.885" height="37.8848" rx="18.9424" fill="white"/>
<rect x="424.558" y="224.558" width="142.885" height="37.8848" rx="18.9424" stroke="#CBD0DC" stroke-width="3.11517"/>
<path d="M442.715 250.5V235.955H448.042C449.074 235.955 449.929 236.125 450.606 236.466C451.283 236.802 451.79 237.259 452.126 237.837C452.462 238.41 452.63 239.056 452.63 239.776C452.63 240.382 452.519 240.893 452.296 241.31C452.074 241.722 451.775 242.053 451.401 242.304C451.032 242.55 450.625 242.73 450.18 242.844V242.986C450.663 243.009 451.134 243.166 451.593 243.455C452.057 243.739 452.441 244.143 452.744 244.669C453.047 245.195 453.198 245.834 453.198 246.587C453.198 247.33 453.023 247.998 452.673 248.589C452.327 249.177 451.792 249.643 451.067 249.989C450.343 250.33 449.417 250.5 448.29 250.5H442.715ZM444.91 248.618H448.077C449.129 248.618 449.881 248.414 450.336 248.007C450.79 247.6 451.018 247.091 451.018 246.48C451.018 246.021 450.902 245.599 450.67 245.216C450.438 244.832 450.106 244.527 449.675 244.3C449.249 244.072 448.743 243.959 448.156 243.959H444.91V248.618ZM444.91 242.247H447.85C448.343 242.247 448.785 242.152 449.178 241.963C449.576 241.774 449.891 241.509 450.123 241.168C450.36 240.822 450.478 240.415 450.478 239.946C450.478 239.345 450.267 238.84 449.846 238.433C449.424 238.026 448.778 237.822 447.907 237.822H444.91V242.247ZM455.631 250.5V239.591H457.683V241.324H457.797C457.996 240.737 458.346 240.275 458.848 239.939C459.355 239.598 459.928 239.428 460.567 239.428C460.699 239.428 460.856 239.432 461.036 239.442C461.22 239.451 461.365 239.463 461.469 239.477V241.509C461.384 241.485 461.232 241.459 461.014 241.43C460.796 241.397 460.579 241.381 460.361 241.381C459.859 241.381 459.411 241.487 459.018 241.7C458.63 241.909 458.322 242.2 458.095 242.574C457.868 242.943 457.754 243.365 457.754 243.838V250.5H455.631ZM467.511 250.72C466.488 250.72 465.596 250.486 464.833 250.017C464.071 249.548 463.479 248.893 463.058 248.05C462.636 247.207 462.426 246.222 462.426 245.095C462.426 243.964 462.636 242.974 463.058 242.126C463.479 241.279 464.071 240.621 464.833 240.152C465.596 239.683 466.488 239.449 467.511 239.449C468.534 239.449 469.426 239.683 470.189 240.152C470.951 240.621 471.543 241.279 471.964 242.126C472.386 242.974 472.596 243.964 472.596 245.095C472.596 246.222 472.386 247.207 471.964 248.05C471.543 248.893 470.951 249.548 470.189 250.017C469.426 250.486 468.534 250.72 467.511 250.72ZM467.518 248.938C468.181 248.938 468.73 248.762 469.166 248.412C469.601 248.062 469.923 247.595 470.132 247.013C470.345 246.43 470.451 245.789 470.451 245.088C470.451 244.392 470.345 243.753 470.132 243.17C469.923 242.583 469.601 242.112 469.166 241.757C468.73 241.402 468.181 241.224 467.518 241.224C466.85 241.224 466.297 241.402 465.856 241.757C465.421 242.112 465.096 242.583 464.883 243.17C464.675 243.753 464.571 244.392 464.571 245.088C464.571 245.789 464.675 246.43 464.883 247.013C465.096 247.595 465.421 248.062 465.856 248.412C466.297 248.762 466.85 248.938 467.518 248.938ZM477 250.5L473.789 239.591H475.984L478.122 247.602H478.228L480.373 239.591H482.568L484.699 247.567H484.805L486.929 239.591H489.123L485.92 250.5H483.754L481.538 242.624H481.375L479.159 250.5H477ZM499.313 242.254L497.388 242.595C497.308 242.349 497.18 242.115 497.005 241.892C496.835 241.67 496.603 241.487 496.309 241.345C496.015 241.203 495.648 241.132 495.208 241.132C494.607 241.132 494.105 241.267 493.702 241.537C493.3 241.802 493.099 242.145 493.099 242.567C493.099 242.931 493.234 243.225 493.504 243.447C493.773 243.67 494.209 243.852 494.81 243.994L496.543 244.392C497.547 244.624 498.295 244.982 498.788 245.464C499.28 245.947 499.526 246.575 499.526 247.347C499.526 248 499.337 248.582 498.958 249.094C498.584 249.6 498.061 249.998 497.388 250.287C496.721 250.576 495.947 250.72 495.066 250.72C493.844 250.72 492.848 250.46 492.076 249.939C491.304 249.413 490.831 248.668 490.656 247.702L492.708 247.389C492.836 247.924 493.099 248.329 493.496 248.604C493.894 248.874 494.413 249.009 495.052 249.009C495.748 249.009 496.304 248.864 496.721 248.575C497.138 248.282 497.346 247.924 497.346 247.503C497.346 247.162 497.218 246.875 496.962 246.643C496.711 246.411 496.326 246.236 495.805 246.118L493.958 245.713C492.94 245.481 492.187 245.112 491.7 244.605C491.217 244.098 490.975 243.457 490.975 242.68C490.975 242.036 491.155 241.473 491.515 240.99C491.875 240.507 492.372 240.131 493.006 239.861C493.641 239.586 494.368 239.449 495.187 239.449C496.366 239.449 497.294 239.705 497.971 240.216C498.648 240.723 499.095 241.402 499.313 242.254ZM506.563 250.72C505.488 250.72 504.562 250.491 503.786 250.031C503.014 249.567 502.417 248.916 501.996 248.078C501.579 247.235 501.371 246.248 501.371 245.116C501.371 243.999 501.579 243.014 501.996 242.162C502.417 241.31 503.005 240.644 503.757 240.166C504.515 239.688 505.4 239.449 506.414 239.449C507.029 239.449 507.626 239.551 508.203 239.754C508.781 239.958 509.3 240.277 509.759 240.713C510.218 241.149 510.58 241.714 510.846 242.411C511.111 243.102 511.243 243.942 511.243 244.932V245.685H502.571V244.094H509.162C509.162 243.535 509.049 243.04 508.821 242.609C508.594 242.174 508.275 241.83 507.863 241.58C507.455 241.329 506.977 241.203 506.428 241.203C505.831 241.203 505.31 241.35 504.865 241.643C504.425 241.932 504.084 242.311 503.843 242.78C503.606 243.244 503.488 243.748 503.488 244.293V245.536C503.488 246.265 503.615 246.885 503.871 247.396C504.132 247.908 504.494 248.298 504.958 248.568C505.422 248.833 505.964 248.966 506.584 248.966C506.987 248.966 507.354 248.909 507.685 248.795C508.016 248.677 508.303 248.502 508.544 248.27C508.786 248.038 508.971 247.751 509.098 247.411L511.108 247.773C510.947 248.365 510.658 248.883 510.242 249.328C509.83 249.768 509.311 250.112 508.686 250.358C508.066 250.599 507.358 250.72 506.563 250.72ZM519.063 250.5V235.955H528.083V237.844H521.257V242.276H527.436V244.158H521.257V250.5H519.063ZM530.611 250.5V239.591H532.735V250.5H530.611ZM531.684 237.908C531.314 237.908 530.997 237.785 530.732 237.538C530.471 237.287 530.341 236.989 530.341 236.643C530.341 236.293 530.471 235.995 530.732 235.749C530.997 235.498 531.314 235.372 531.684 235.372C532.053 235.372 532.368 235.498 532.628 235.749C532.893 235.995 533.026 236.293 533.026 236.643C533.026 236.989 532.893 237.287 532.628 237.538C532.368 237.785 532.053 237.908 531.684 237.908ZM537.715 235.955V250.5H535.592V235.955H537.715ZM545.274 250.72C544.199 250.72 543.273 250.491 542.497 250.031C541.725 249.567 541.128 248.916 540.707 248.078C540.29 247.235 540.082 246.248 540.082 245.116C540.082 243.999 540.29 243.014 540.707 242.162C541.128 241.31 541.716 240.644 542.468 240.166C543.226 239.688 544.111 239.449 545.125 239.449C545.74 239.449 546.337 239.551 546.914 239.754C547.492 239.958 548.011 240.277 548.47 240.713C548.929 241.149 549.291 241.714 549.556 242.411C549.822 243.102 549.954 243.942 549.954 244.932V245.685H541.282V244.094H547.873C547.873 243.535 547.76 243.04 547.532 242.609C547.305 242.174 546.985 241.83 546.574 241.58C546.166 241.329 545.688 241.203 545.139 241.203C544.542 241.203 544.021 241.35 543.576 241.643C543.136 241.932 542.795 242.311 542.554 242.78C542.317 243.244 542.199 243.748 542.199 244.293V245.536C542.199 246.265 542.326 246.885 542.582 247.396C542.842 247.908 543.205 248.298 543.669 248.568C544.133 248.833 544.675 248.966 545.295 248.966C545.698 248.966 546.065 248.909 546.396 248.795C546.727 248.677 547.014 248.502 547.255 248.27C547.497 248.038 547.681 247.751 547.809 247.411L549.819 247.773C549.658 248.365 549.369 248.883 548.953 249.328C548.541 249.768 548.022 250.112 547.397 250.358C546.777 250.599 546.069 250.72 545.274 250.72Z" fill="#54575C"/>
</svg>
